<svg width="780" height="753" viewBox="0 0 780 753" fill="none" xmlns="http://www.w3.org/2000/svg">
<g clip-path="url(#clip0_184_4)">
<path d="M390 413.667C495.486 413.667 581 328.153 581 222.667C581 117.18 495.486 31.6667 390 31.6667C284.514 31.6667 199 117.18 199 222.667C199 328.153 284.514 413.667 390 413.667Z" stroke="#020202" stroke-width="63.6667" stroke-miterlimit="10"/>
<path d="M40 763.667L52.3333 695.333C66.9033 616.416 108.658 545.095 170.344 493.761C232.029 442.428 309.749 414.324 390 414.333C470.347 414.353 548.142 442.551 609.841 494.017C671.541 545.484 713.235 616.96 727.667 696L740 764.333" stroke="#020202" stroke-width="63.6667" stroke-miterlimit="10"/>
</g>
<defs>
<clipPath id="clip0_184_4">
<rect width="780" height="753" fill="white"/>
</clipPath>
</defs>
</svg>
