<svg width="573" height="618" viewBox="0 0 573 618" fill="none" xmlns="http://www.w3.org/2000/svg">
<path d="M420.333 191.667H458.99C493.663 191.667 522.547 218.244 525.427 252.797L547.65 519.463C550.89 558.33 520.217 591.667 481.213 591.667H92.7867C53.784 591.667 23.1113 558.33 26.3503 519.463L48.5727 252.797C51.452 218.244 80.3363 191.667 115.009 191.667H153.667M420.333 191.667H153.667M420.333 191.667V158.333C420.333 122.971 406.287 89.0573 381.28 64.0523C356.277 39.0477 322.363 25 287 25C251.637 25 217.724 39.0477 192.719 64.0523C167.714 89.0573 153.667 122.971 153.667 158.333V191.667M420.333 191.667V325M153.667 191.667V325" stroke="black" stroke-width="50" stroke-linecap="round" stroke-linejoin="round"/>
</svg>
